<svg width="371" height="370" viewBox="0 0 371 370" fill="none" xmlns="http://www.w3.org/2000/svg">
<path fill-rule="evenodd" clip-rule="evenodd" d="M287.504 129.483C275.028 125.507 262.022 124.573 249.093 123.176C253.213 122.268 257.673 121.053 261.868 120.588C265.729 120.164 268.027 121.756 271.661 123.022C278.147 125.287 285.393 128.039 291.031 130.671C289.862 130.256 288.686 129.86 287.504 129.483V129.483ZM269.737 134.446C256.05 131.887 242.037 131.33 228.369 128.654C231.758 127.617 233.678 126.713 237.28 127.057C242.633 127.565 248.05 128.663 253.281 129.828C260.873 131.52 268.533 133.345 275.929 135.744C273.874 135.267 271.81 134.834 269.737 134.446V134.446ZM270.395 137.118C269.459 137.496 266.176 136.212 265.115 135.983C266.137 136.178 269.797 137.36 270.395 137.118ZM243.144 136.834C232.434 136.162 221.594 135.825 210.866 135.88C212.791 135.16 214.631 134.258 216.507 133.416C221.639 131.117 222.531 131.482 227.653 132.995C234.261 134.948 241.03 136.059 247.804 137.189C246.253 137.045 244.699 136.927 243.143 136.834L243.144 136.834ZM230.646 143.01C215.86 144.13 201.275 145.921 186.516 147.573C189.666 146.3 192.696 144.68 195.706 143.116C200.353 140.704 203.92 141.045 209.1 141.043C214.602 141.04 220.006 141.687 225.475 142.31C226.825 142.465 232.109 142.898 230.646 143.01V143.01ZM207.863 131.771C215.756 124.104 224.812 116.96 234.089 110.99C239.978 107.199 246.382 102.919 253.301 106.206C241.857 106.681 226.906 117.062 220.133 125.959C219.808 126.381 219.311 126.672 218.972 127.087C217.701 128.63 219.086 128.799 218.22 129.748C218.12 129.86 213.496 131.748 214.11 131.495C210.973 132.789 207.763 133.875 204.622 135.152C205.685 134.007 206.763 132.879 207.863 131.77L207.863 131.771ZM251.897 113.405C244.127 119.904 235.698 123.362 226.34 126.622C234.886 121.126 243.455 116.63 252.85 112.693C252.531 112.93 252.214 113.167 251.897 113.406L251.897 113.405ZM261.566 115.635C263.186 115.116 263.909 115.251 264.269 117.174C260.084 117.015 258.096 117.589 254.142 118.549C256.546 117.407 259.027 116.433 261.566 115.635V115.635ZM266.702 116.685C266.41 116.157 266.286 115.149 266.083 114.634C269.19 114.583 271.829 115.241 274.469 116.87C273.594 116.878 266.918 117.649 266.702 116.684L266.702 116.685ZM140.713 188.818C163.427 186.013 185.213 185.283 208.025 187.509C190.839 189.014 173.58 192.467 156.669 195.819C143.09 198.511 129.322 199.964 115.705 202.396C118.228 199.769 120.587 196.987 123.157 194.399C127.621 189.904 134.31 189.618 140.713 188.818V188.818ZM218.806 195.515C222.907 195.096 226.999 194.587 231.077 193.989C235.511 193.335 242.583 190.412 247.044 191.293C222.687 198.523 196.367 201.854 171.328 205.928C160.92 207.622 150.324 210.098 140.242 213.239C125.685 217.772 109.266 217.749 95.3734 224.118C99.6218 219.664 104.275 213.294 109.115 209.673C112.633 207.04 118.469 206.821 122.655 206.268C129.546 205.36 136.471 204.653 143.38 203.911C168.533 201.202 193.645 198.144 218.806 195.515V195.515ZM91.4347 219.626C89.3914 221.876 87.4026 224.174 85.4701 226.519C88.9767 210.061 88.8175 192.705 90.7922 175.996C91.9089 166.549 92.9567 156.996 94.4587 147.612C95.7868 139.325 96.1397 128.034 100.581 120.875C103.896 123.955 106.347 127.224 105.689 131.701C104.843 137.457 102.364 142.99 101.211 148.702C99.9164 155.119 99.0398 161.652 98.2395 168.149C97.0084 178.142 96.7217 188.307 97.2506 198.354C97.3935 201.179 97.5752 204.001 97.7956 206.82C97.8924 208.051 98.5296 210.147 98.2582 211.297C97.5954 214.125 93.5722 217.259 91.4347 219.626V219.626ZM115.924 151.103C117.87 141.855 119.056 131.11 123.106 122.442C125.353 117.625 127.515 115.91 130.874 121.114C133.272 124.827 129.507 132.978 128.32 137.646C124.955 150.889 123.179 164.478 120.953 177.945C120.372 181.473 120.2 184.962 119.825 188.496C119.512 191.424 119.593 191.25 117.906 193.455C116.822 194.879 115.111 196.09 113.804 197.339C110.376 200.616 106.901 203.849 103.508 207.163C108.668 188.694 111.987 169.848 115.924 151.103V151.103ZM369.876 193.132C366.748 188.97 362.78 185.219 358.722 182.003C353.1 177.543 346.215 174.935 340.601 170.647C335.879 167.036 331.978 162.232 327.152 158.577C319.486 152.774 311.597 147.948 302.62 144.461C314.053 148.364 325.017 153.062 334.175 161.16C334.949 161.845 341.658 170.436 343.046 169.616C343.996 169.061 339.97 162.843 339.131 161.395C332.942 150.748 320.242 143.934 310.206 137.095C298.872 129.372 286.495 125.039 273.582 120.767C285.314 121.416 295.198 124.431 305.026 131.034C309.86 134.28 314.333 138.072 319.316 141.085C323.733 143.758 327.976 146.222 331.788 149.807C336.058 153.827 339.489 158.206 342.323 163.341C343.388 165.272 348.589 176.965 348.728 169.538C348.797 165.879 344.175 160.663 342.305 158.019C339.151 153.563 335.492 149.55 331.663 145.67C325.149 139.076 318.932 132.232 311.201 127.029C306.804 124.068 302.199 121.723 297.169 120.031C293.283 118.724 289.295 117.785 285.219 117.322C281.347 116.884 280.975 116.931 277.894 114.93C275.247 113.209 272.987 111.368 270.025 110.14C267.007 108.889 264.438 108.709 262.192 107.002C259.543 104.982 258.515 102.614 255.096 101.35C251.953 100.186 248.738 100.442 245.459 100.704C234.615 101.567 223.605 104.316 214.634 110.731C206.705 116.401 201.315 125.451 197.483 134.274C195.367 139.143 196.804 138.961 191.121 141.759C185.146 144.702 179.205 147.593 173.392 150.876C182.976 138.961 191.308 125.769 201.815 114.603C207.433 108.638 212.943 102.577 218.56 96.6161C220.218 94.8596 233.315 82.2074 225.958 82.6556C224.257 82.7582 221.698 85.0321 220.135 85.7786C217.015 87.2762 213.917 88.6032 211.033 90.5604C206.034 93.9532 201.954 98.1744 197.866 102.565C187.277 113.937 177.733 126.101 172.848 141.035C171.691 144.569 171.268 148.552 169.455 151.794C168.178 154.082 166.679 154.872 164.085 156.562C159.638 159.454 155.316 162.428 151.104 165.662C161.872 149.71 168.818 131.857 177.302 114.681C188.214 92.5952 193.206 67.8086 202.384 44.9895C204.165 40.5635 206.333 35.6932 209.321 31.926C210.229 30.7803 213.102 29.0629 213.353 27.6183C214.015 23.8073 211.434 24.8302 209.54 25.9261C204.896 28.6105 200.388 34.6659 197.215 38.7477C192.597 44.6847 187.921 51.1251 183.921 57.5219C170.141 79.5535 161.007 104.556 153.42 129.302C149.85 140.934 146.169 152.759 144.413 164.823C143.566 170.648 144.529 170.804 139.663 174.79C134.582 178.955 129.726 183.374 124.685 187.58C129.278 178.144 132.016 166.442 135.33 156.432C138.801 145.945 142.748 135.617 146.275 125.146C152.011 108.107 156.304 90.6613 160.434 73.1795C162.627 63.8847 164.683 54.5827 166.563 45.2224C168.979 33.1939 171.436 19.3047 176.825 8.20928C177.629 6.5591 180.895 -1.10817 176.169 1.53231C174.003 2.73943 171.438 10.6402 170.333 12.7703C164.072 24.8678 158.797 37.1513 154.085 49.926C145.733 72.5774 139.872 95.7899 133.255 118.953C129.945 114.434 123.074 109.459 117.137 111.382C111.804 113.11 109.182 120.702 107.505 125.458C107.318 122.167 103.282 116.03 100.135 115.819C98.3469 115.699 95.2658 117.393 93.7705 118.101C90.074 119.848 85.8753 122.059 83.57 125.499C78.8456 132.557 79.743 143.635 78.9043 151.803C76.4065 176.164 76.8567 199.687 79.6123 223.948C80.2418 229.5 81.0023 232.076 77.8447 236.451C74.2381 241.451 70.7611 246.366 67.2099 251.059C68.3509 248.885 67.319 242.241 67.3056 239.923C67.2684 233.714 67.3314 227.557 67.6531 221.352C68.3131 208.574 67.6262 195.367 66.9814 182.58C65.6536 156.234 65.7717 130.225 66.6572 103.887C66.8426 98.3359 66.7173 92.82 66.6828 87.2728C66.6682 84.9825 67.4254 79.3723 63.7887 80.7132C62.7327 81.1022 61.9559 85.1983 61.6494 86.2371C58.8173 95.8134 57.9288 106.173 56.6322 116.008C55.4542 124.954 54.378 133.913 53.6316 142.902C52.1977 160.171 52.6733 176.941 52.7624 194.24C52.8371 208.489 54.3832 223.981 57.018 237.127C58.2536 243.293 60.4008 249.954 61.0266 256.168C61.4064 259.91 59.2171 261.296 56.7035 264.693C54.1599 268.129 51.6474 271.592 49.2198 275.11C49.4534 269.718 47.9164 264.143 47.5553 258.748C47.2527 254.241 46.9659 249.756 46.5597 245.253C46.2367 241.707 45.9324 238.159 45.6179 234.609C43.9972 216.342 42.4144 198.115 39.4244 180.016C34.8277 152.222 29.8137 123.658 29.9968 95.3834C30.0332 89.9872 30.207 84.5947 30.2689 79.1971C30.3145 75.1288 29.9401 71.0928 29.916 67.0302C29.9033 64.9584 30.8468 60.952 30.1558 58.8875C28.1563 52.9139 26.4251 59.5884 26.3698 62.3316C26.3418 63.777 26.2554 65.2182 26.2334 66.6629C26.1007 75.7411 25.3202 84.695 24.8729 93.763C24.2311 106.838 24.8067 119.848 25.2421 132.916C25.7176 147.153 25.3627 161.486 26.894 175.669C28.869 193.952 32.8224 212.128 35.3043 230.361C36.3842 238.302 37.8903 246.155 38.7079 254.133C39.4704 261.589 42.1167 268.918 43.7288 275.806L43.7198 275.279C44.3445 278.206 45.3247 279.67 44.4354 282.355C43.8085 284.243 42.0882 286.227 41.058 287.96C38.8607 291.648 36.7517 295.378 34.6421 299.116C36.5113 289.628 33.9754 277.658 31.9679 268.339C29.7491 258.027 27.0452 247.466 23.8803 237.41C21.4191 229.589 19.3825 221.902 18.6386 213.762C17.6477 202.92 14.699 192.495 13.1132 181.754C11.617 171.613 9.09792 161.571 6.95095 151.533C6.46727 149.273 4.30845 138.464 0.798348 143.339C-0.0670977 144.543 0.994101 147.737 1.13021 148.981C1.4646 152.06 1.67308 155.091 1.81156 158.183C2.70928 177.812 6.82112 197.739 10.0444 217.08C12.1041 229.437 14.2852 241.838 17.2947 254.001C19.6384 263.47 20.9045 273.309 23.5041 282.645C24.7509 287.123 26.0174 291.701 28.0096 295.906C29.7428 299.566 31.4898 300.588 30.8788 304.531C30.0041 310.169 25.2057 316.021 23.0406 321.479C21.2699 325.942 19.4642 330.412 17.7771 334.905C15.4202 341.2 13.2115 347.606 11.1438 354C9.9437 357.703 7.61556 362.484 7.39787 366.251C7.06619 371.972 10.3039 370.336 12.0038 366.509C13.1474 363.933 14.0603 361.163 15.1358 358.544C23.0276 339.356 30.2533 318.783 42.0379 301.566C46.9537 294.376 60.544 292.645 68.5177 290.139C87.6995 284.102 108.45 283.308 128.353 281.103C144.402 279.328 160.191 277.697 175.903 273.75C178.198 273.176 220.078 260.846 219.027 258.696C219.613 259.902 173.209 270.227 169.493 270.532C157.839 271.48 146.222 271.734 134.543 272.227C105.329 273.461 76.5938 274.161 50.0501 287.964C53.3993 282.695 57.4053 272.748 63.2851 270.708C74.6172 266.771 86.5605 264.23 97.9772 260.391C109.845 256.407 122.033 253.737 133.971 250.046C145.895 246.357 157.793 242.535 169.899 239.433C182.067 236.316 194.637 233.067 207.281 233.469C212.148 233.625 217.029 234.057 221.875 234.515C223.705 234.688 238.272 237.383 230.395 234.036C225.294 231.867 218.616 231.7 213.152 230.903C206.886 229.993 200.879 229.185 194.546 229.233C180.757 229.339 166.904 232.571 153.575 235.77C137.622 239.595 121.016 243.392 105.788 249.548C91.8324 255.192 77.8049 260.61 63.8483 266.183C66.386 262.298 69.0849 258.529 71.7251 254.713C73.0074 252.857 74.3602 249.843 76.1809 248.576C78.9598 246.64 84.8071 246.137 88.0347 245.062C101.021 240.745 114.066 235.673 127.373 232.462C148.769 227.297 170.675 224.094 192.204 219.498C204.768 216.818 218.074 214.453 230.921 214.683C235.753 214.771 240.593 214.596 245.338 215.617C247.017 215.977 249.13 216.907 250.859 217.103C256.032 217.684 252.194 215.195 249.056 214.107C224.183 205.491 196.769 212.374 171.698 215.876C155.118 218.19 138.749 220.55 122.918 226.254C108.332 231.507 94.387 238.514 79.5581 243.127C83.4443 237.603 86.9089 231.882 93.1185 228.843C99.9902 225.483 107.233 224.022 114.733 222.749C130.325 220.093 145.813 216.693 161.456 214.38C175.826 212.258 190.171 210.375 204.415 207.478C218.284 204.654 232.072 203.005 245.309 197.666C249.5 195.976 254.581 193.046 259.056 192.79C264.856 192.46 271.879 194.199 277.567 195.061C291.419 197.157 305.798 199.318 318.604 205.184C331.169 210.94 339.701 219.986 349.321 229.443C352.351 232.427 355.333 235.461 358.355 238.453C359.028 239.121 363.044 244.129 363.872 244.192C368.995 244.576 359.331 234.421 357.663 232.339C346.138 217.959 333.666 205.965 316.712 198.129C302.264 191.45 287.159 187.106 271.403 184.881C271.443 182.032 283.05 181.892 283.368 178.941C283.789 175.006 275.667 178.943 274.057 179.427C271 180.344 268.027 181.493 264.955 182.361C257.902 184.354 250.098 181.897 242.932 180.977C234.293 179.872 225.54 179.147 216.851 178.623C188.089 176.885 160.493 177.838 132.558 185.543C137.57 181.152 142.799 176.978 148.097 172.938C150.16 171.365 151.732 169.924 154.069 169.187C158.017 167.939 162.703 168.497 166.818 168.095C183.085 166.51 199.278 164.728 215.635 164.227C242.554 163.403 270.621 168.238 296.15 176.8C308.605 180.979 320.824 185.042 331.639 192.733C334.142 194.511 336.369 196.552 338.645 198.607C339.585 199.456 345.329 205.633 345.621 205.6C348.112 205.335 336.56 192.55 334.882 190.917C312.324 168.988 283.057 164 253.172 159.594C221.921 154.987 190.554 157.429 159.767 164.374C165.914 160.538 171.956 153.964 178.858 151.733C184.1 150.038 190.754 150.36 196.059 149.817C211.442 148.236 227.567 150.925 242.984 152.018C260.4 153.252 277.318 155.488 294.157 160.13C302.773 162.506 311.163 165.02 319.569 168.104C326.231 170.549 331.667 172.054 337.058 176.52C339.232 178.338 345.701 183.166 349.202 186.448C350.629 187.79 352.108 190.622 353.722 191.295C359.732 193.804 351.755 184.008 350.445 182.308C355.223 185.163 359.683 188.469 363.925 191.989C364.764 192.688 365.567 193.22 366.416 193.857C367.414 194.608 367.936 196.799 369.644 196.069C371.034 195.471 370.54 194.038 369.876 193.132" fill="#012A32"/>
</svg>
